PathFileType	4	(X/Y/Z)	 s01c0201.trc
DataRate	CameraRate	NumFrames	NumMarkers	Units	OrigDataRate	OrigDataStartFrame	OrigNumFrames
200	200	4	48	mm	200	1001	2000
Frame#	Time	racr			lacr			c7			jug			rlel			rdr			llel			ldr			s2			lic			ric			lasi			rasi			rpsi			lpsi			rgt			lgt			rth1			rth2			rth3			rth4			rlfc			rsh1			rsh2			rsh3			rsh4			rlmal			rmmal			rcal			rtoe			rmt5			lth1			lth2			lth4			lth3			llfc			lsh1			lsh2			lsh3			lsh4			llmal			lmmal			lcal			ltoe			lmt5			SBIKE			LBIKE			RBIKE			
		X1	Y1	Z1	X2	Y2	Z2	X3	Y3	Z3	X4	Y4	Z4	X5	Y5	Z5	X6	Y6	Z6	X7	Y7	Z7	X8	Y8	Z8	X9	Y9	Z9	X10	Y10	Z10	X11	Y11	Z11	X12	Y12	Z12	X13	Y13	Z13	X14	Y14	Z14	X15	Y15	Z15	X16	Y16	Z16	X17	Y17	Z17	X18	Y18	Z18	X19	Y19	Z19	X20	Y20	Z20	X21	Y21	Z21	X22	Y22	Z22	X23	Y23	Z23	X24	Y24	Z24	X25	Y25	Z25	X26	Y26	Z26	X27	Y27	Z27	X28	Y28	Z28	X29	Y29	Z29	X30	Y30	Z30	X31	Y31	Z31	X32	Y32	Z32	X33	Y33	Z33	X34	Y34	Z34	X35	Y35	Z35	X36	Y36	Z36	X37	Y37	Z37	X38	Y38	Z38	X39	Y39	Z39	X40	Y40	Z40	X41	Y41	Z41	X42	Y42	Z42	X43	Y43	Z43	X44	Y44	Z44	X45	Y45	Z45	X46	Y46	Z46	X47	Y47	Z47	X48	Y48	Z48	
1001	5.0050	529.235856	1228.772253	-82.801764	515.428365	1235.688616	-447.718748	505.925773	1351.600126	-257.169811	488.219988	1184.740138	-262.409523	459.624304	971.933811	40.853503	656.066825	873.235838	-54.811799	457.539087	970.291016	-554.884354	655.996556	881.765307	-436.233966	-21.565943	1152.646576	-233.482470	124.042214	1173.164011	-421.209462	141.552401	1158.726315	-84.331855	134.491073	1117.402789	-397.834237	170.746551	1122.676191	-117.730078	9.357118	1192.908077	-182.598220	0.012661	1198.366747	-286.236477	108.905502	1057.272052	-53.030589	72.216160	1024.191444	-432.928707	229.546457	1011.198292	-53.932697	309.905242	994.791412	-66.687190	393.636215	970.805759	-85.447360	321.171219	1046.893571	-84.708940	473.593411	908.749736	-123.035941	391.653035	837.065378	-86.869587	333.335649	776.211236	-87.798875	266.005431	717.813178	-93.313223	367.093132	741.001362	-122.775949	169.153224	639.837124	-104.980538	208.414860	620.637450	-183.691325	121.442142	645.443145	-160.183892	282.208572	426.585468	-133.698901	191.727729	490.471938	-70.549653	118.191875	902.274476	-436.793566	175.757116	834.163729	-438.372581	218.512477	868.906701	-438.832424	225.328287	766.179577	-420.410383	279.850034	662.371063	-406.339060	232.722433	562.263603	-443.064899	220.080281	476.600520	-435.916917	205.251914	392.897529	-422.503290	276.100061	470.920984	-410.865676	193.430313	264.305122	-409.112887	194.099832	236.167139	-361.417939	142.098586	233.409443	-364.436591	412.797017	184.990774	-373.763277	306.239992	169.428626	-439.583442	-223.309132	893.703407	-249.562120	-12.174971	84.417403	-453.832696	-20.325673	80.914026	-53.793748	
1002	5.0100	528.212899	1229.487426	-80.145241	517.224555	1236.123598	-445.382818	506.390136	1351.892897	-255.028525	488.440857	1185.116482	-260.417843	458.985377	971.619774	40.403976	655.938003	873.400631	-55.101649	458.405497	971.924473	-554.615266	656.268941	881.962712	-436.271163	-21.591007	1153.386609	-235.166964	126.004324	1172.591628	-421.961146	140.783553	1159.552947	-84.958276	135.112425	1117.378101	-398.631879	170.265905	1123.530705	-118.196658	9.154379	1193.420267	-184.131057	0.306940	1198.681655	-287.845782	108.236210	1058.753293	-53.519386	72.295799	1024.452814	-433.968038	228.406892	1014.009000	-54.605048	309.348522	998.877815	-66.436178	392.613998	976.843282	-83.843443	319.784579	1051.174283	-84.507196	475.777850	916.678465	-121.305758	393.201507	844.616383	-86.433684	335.824717	783.284884	-87.902844	269.125823	724.185985	-93.825788	370.476374	747.837882	-122.350481	173.800976	643.913560	-106.564291	214.411155	625.479318	-184.926782	126.040647	647.827154	-161.716637	292.937031	433.902004	-133.283691	200.353525	495.596220	-70.889120	116.401163	902.198966	-438.175725	172.827297	833.001388	-439.815488	216.442785	867.175491	-440.496850	221.267682	764.313845	-421.963823	273.971127	659.596560	-407.749495	225.651237	559.813784	-444.175485	212.694570	474.263925	-436.681378	197.356562	390.719243	-423.015101	268.855376	468.306894	-412.140896	182.998022	263.562308	-408.700618	185.752235	233.154001	-362.568210	133.887851	231.815430	-364.290074	403.580744	179.538617	-373.961014	296.749491	165.515381	-439.629476	-223.348172	893.752325	-249.625911	-12.197362	84.427662	-453.859507	-20.342501	80.946843	-53.806511	
1003	5.0150	527.181032	1230.253079	-77.466799	518.974834	1236.572579	-443.002397	506.882695	1352.089389	-252.836572	488.603840	1185.467642	-258.350008	458.231709	971.310704	40.076995	655.811659	873.557310	-55.362681	459.412631	973.619642	-554.247642	656.571295	882.099194	-436.316571	-21.746462	1153.862141	-236.583136	126.254107	1171.874284	-421.033356	139.927868	1160.415490	-85.553163	135.696623	1117.499896	-399.526275	169.730738	1124.607738	-118.724038	8.946753	1193.902876	-185.547913	0.576016	1199.088280	-289.408254	107.553000	1060.541065	-54.021254	72.086734	1024.792460	-434.768606	227.393747	1017.027697	-55.129000	308.625509	1003.115679	-66.513013	395.005749	982.026665	-84.951468	318.337389	1055.534606	-84.498550	477.147929	924.425197	-120.216701	394.617710	852.173634	-86.087380	338.285646	789.614091	-88.005395	272.482655	729.523987	-94.441912	373.417110	754.354508	-122.086450	178.859562	647.003378	-108.525127	220.465925	629.379188	-185.843597	131.379229	649.580078	-163.110634	303.655104	440.573897	-133.285843	209.466935	499.883365	-71.257015	114.760566	902.307539	-439.491291	170.127496	832.135679	-441.306067	214.262008	865.745468	-442.185737	217.516171	762.862028	-423.723896	268.649158	657.329658	-409.208638	219.226167	558.004065	-445.341244	205.559035	472.643729	-437.476634	189.605630	389.239656	-423.564500	261.874264	466.110920	-413.368699	172.967506	263.241364	-408.461595	177.193504	231.197986	-363.275616	125.426527	230.935826	-364.311213	394.053631	174.869865	-374.125253	287.000163	162.300641	-439.704969	-223.393019	893.804428	-249.738299	-12.196113	84.464277	-453.839442	-20.335269	80.935515	-53.807225	
1004	5.0200	526.084510	1230.797646	-74.884440	520.797660	1236.934794	-440.539933	507.349727	1352.222702	-250.606840	488.800882	1185.936770	-256.329462	457.383458	970.810761	39.802055	655.743804	873.669072	-55.617055	460.391557	975.317868	-554.033799	656.891558	882.225288	-436.421442	-21.980682	1154.582547	-237.861235	128.001324	1171.542168	-421.466979	139.031343	1161.366675	-85.997201	136.238281	1117.759100	-400.530179	168.999747	1125.831711	-119.289906	8.636212	1194.556644	-186.975734	0.810811	1199.594284	-290.923137	106.887106	1062.509807	-54.527310	71.814089	1025.379056	-435.776866	226.360241	1020.087206	-55.708830	307.687257	1007.277188	-66.947647	394.370251	987.488420	-84.519704	316.905445	1060.178502	-84.500367	477.991616	931.674136	-119.025292	396.075916	858.632885	-85.791101	340.898757	795.081237	-87.973794	276.231769	733.805021	-94.854125	377.079194	760.214203	-121.243029	184.659052	649.746020	-109.374665	226.692011	632.518439	-186.292902	136.373648	650.554927	-163.480304	314.477772	446.501462	-133.205395	218.625922	503.397844	-71.372685	113.318321	902.535861	-440.821934	167.723288	831.581061	-442.824614	212.348665	864.662437	-443.933484	214.247721	761.646763	-425.502512	263.897261	655.568234	-410.663584	213.349182	556.747927	-446.402630	198.705454	471.711084	-438.218627	181.988004	388.407376	-424.068984	255.157517	464.525502	-414.615026	163.329591	263.391946	-408.371527	168.428614	230.355100	-363.491175	116.706948	230.798823	-364.563024	384.362085	170.636473	-374.263750	277.086691	159.756210	-439.785331	-223.449920	893.839971	-249.829858	-12.212169	84.435805	-453.874136	-20.338742	80.973251	-53.833196	
